<svg xmlns="http://www.w3.org/2000/svg" viewBox="0 0 393.24 33.16"><defs><style>.cls-1{fill:none;stroke:#334454;stroke-miterlimit:10;stroke-width:11.5px;}</style></defs><title>ptc-12</title><g id="Camada_2" data-name="Camada 2"><g id="Camada_1-2" data-name="Camada 1"><path class="cls-1" d="M.59,5.75c13,1.33,16.69,21.57,28.76,21.57,12.52,0,16.52-21.8,28.75-21.57C70.17,6,73.63,27.32,85.42,27.32S100.68,6,112.74,5.75C125,5.52,129,27.32,141.5,27.32S158,5.52,170.26,5.75c12.06.23,15.53,21.57,27.32,21.57S212.83,6,224.9,5.75c12.23-.23,16.23,21.57,28.75,21.57S270.16,5.53,282.41,5.75C294,6,297.11,25.56,309.73,27.32,321.9,29,326.22,5.53,338.49,5.75,350.54,6,354,27.32,365.81,27.32S381.06,6,393.13,5.75"/></g></g></svg>