<svg xmlns="http://www.w3.org/2000/svg" viewBox="0 0 770.19 361.23"><defs><style>.cls-1{fill:#fece81;}.cls-2{fill:#ff996d;}</style></defs><title>logo-reverse</title><g id="Camada_2" data-name="Camada 2"><g id="Camada_1-2" data-name="Camada 1"><path class="cls-1" d="M64.78,315c0,30.3-18.57,46.21-53.61,46.21C8,361.23,1.82,361,0,360.68v-30c1,.14,3.77.28,5.17.28,13.54,0,18.85-4.89,18.85-17V178.76A20.38,20.38,0,0,1,44.4,158.37h0a20.38,20.38,0,0,1,20.38,20.39Z"/><path class="cls-1" d="M86.66,287.24A22.29,22.29,0,0,1,109,264.76a22.76,22.76,0,0,1,22.62,21.75,22.48,22.48,0,1,1-44.94.73Z"/><path class="cls-1" d="M414.87,158.37h0a20.39,20.39,0,0,1,20.39,20.39v108.9A20.39,20.39,0,0,1,414.87,308h0a20.39,20.39,0,0,1-20.38-20.38V178.76A20.39,20.39,0,0,1,414.87,158.37Z"/><path class="cls-1" d="M482,158.37h0a19.7,19.7,0,0,1,19.69,19.69v7.26h.83c8.52-19.13,23.74-29.18,46.78-29.18,33.22,0,51.93,20.94,51.93,56v76.22A19.68,19.68,0,0,1,581.58,308h-1.4a19.69,19.69,0,0,1-19.69-19.69V220.64c0-19.54-9.07-30.72-27.64-30.72s-29.74,13.41-29.74,33v65.48A19.68,19.68,0,0,1,483.42,308H482a19.69,19.69,0,0,1-19.69-19.69V178.06A19.7,19.7,0,0,1,482,158.37Z"/><path class="cls-1" d="M621.64,232.93c0-46.91,24-76.37,61.29-76.37,21.65,0,38.26,10.89,45.66,27.5h.84V126.68a20.1,20.1,0,0,1,20.1-20.1h.56a20.1,20.1,0,0,1,20.1,20.1V287.94a20.1,20.1,0,0,1-20.1,20.1h0a20.1,20.1,0,0,1-20.1-20.1v-5.59h-.7c-7.26,16.47-24.57,27.5-46.63,27.5C645.52,309.85,621.64,280.26,621.64,232.93Zm41.75.28c0,26.94,12.85,43.83,33.09,43.83s33.23-17,33.23-43.83-13-43.84-33.23-43.84S663.39,206.4,663.39,233.21Z"/><path class="cls-2" d="M176.09,124.26q8.46,70.52,16.82,141c1,8.54,2.08,17.07,3,25.62.78,7.57,4,13.82,11.38,16.93s14.14.89,20.23-3.83c20.33-15.8,39.64-33.05,59.27-49.71H260.56q13.35,11.49,26.78,22.89c11.86,10.06,23.58,20.63,36.24,29.71,8.9,6.39,25.62.26,27.2-11.06,5.33-38.29,9.38-76.7,13.37-115.15,1.57-15.17,3.17-30.34,5.13-45.46.11-.86.19-1.74.34-2.6-.08.45-.61,4.4-.14,1.09.24-1.67.47-3.34.71-5q.71-4.84,1.5-9.67c1-6,2.07-12,3.36-17.89,2.22-10.28,5.73-19.84,8.84-29.82,0,0-2,4.57-.85,2,.24-.51.46-1,.69-1.55.41-.88.83-1.76,1.26-2.63,1.29-2.58,2.72-5.08,4.22-7.54,1.19-1.93,2.42-3.84,3.72-5.7.65-.93,1.31-1.86,2-2.76-.23.3-1.68,1.92-.27.41s3-3.41,4.55-5c.79-.8,1.61-1.58,2.44-2.34.56-.51,3.62-3,.65-.74a70.82,70.82,0,0,1,9.49-5.61c2.36-1.25-2.9.91-.34.17.94-.27,1.85-.66,2.79-1,2.13-.67,4.26-1.13,6.43-1.63.88-.2,3.53-1-.55,0a19.6,19.6,0,0,1,2.94-.27c1.71-.12,3.43-.15,5.15-.12,1,0,2,.07,2.94.14.64,0,3.78.43,1.19.06s.53.14,1.16.27c1.19.24,2.38.52,3.56.84,1.89.51,3.71,1.18,5.54,1.85-3.4-1.24.13.18,1.53,1q1.28.7,2.52,1.5c.54.34,3.25,2,1.05.6s.26.22.78.67c.85.75,1.67,1.52,2.47,2.32.29.29,3.78,3.85,3.61,4.05s-2-2.91-.87-1c.45.78,1,1.5,1.49,2.27a53.74,53.74,0,0,1,2.63,4.76c.29.62,1.26,3.33.44.9-.91-2.72.45,1.46.5,1.61a54.66,54.66,0,0,1,1.56,5.91,7.72,7.72,0,0,0,.38,2q-.45-3.69-.22-1.56c.08.67.13,1.34.17,2a51.2,51.2,0,0,1,.05,5.4,11.58,11.58,0,0,1-.19,2.69q.56-3.7.2-1.59c-.11.66-.23,1.32-.38,2-.38,1.77-.92,3.47-1.45,5.19-1.08,3.58.05-.65.37-.65-.06,0-1.73,3.4-1.83,3.58-.33.58-.71,1.13-1,1.71-1.19,2.06-.73,1.91.19,0-.87,1.78-3.09,3.52-4.53,4.85a14.48,14.48,0,0,0-1.49,1.32c-1.26,1.6,2.86-1.82.06,0-1.69,1.07-3.34,2.18-5.11,3.13-.79.41-1.61.77-2.39,1.19-2,1,3.41-1.07.11-.09-1.92.57-3.78,1.22-5.74,1.67-.86.19-1.76.29-2.61.52-2.18.58,3.82-.14.33-.1-2,0-3.94.08-5.93,0-.74,0-3.54-.51-.81,0,3,.55-.81-.22-1.42-.36-1.34-.32-7.6-2.69-3.09-.71-8.84-3.89-20.3-2.89-25.33,6.64-4.24,8-2.83,21.17,6.64,25.34,19.54,8.59,40.67,7.86,59.52-2.46A63.39,63.39,0,0,0,497,79.08c2.74-20.37-4-40.43-17.15-56-13.28-15.75-35-23.85-55.36-23a76.53,76.53,0,0,0-56,27.35,129.32,129.32,0,0,0-22.82,40.76C336.18,95.41,333.28,125,330,153.5c-2.34,20.58-4.33,41.2-6.52,61.79q-1.84,17.52-3.9,35-1.1,9.27-2.26,18.51c-.41,3.17-.83,6.33-1.24,9.5-.47,3.64.61-4.4-.24,1.82l-.81,5.84,27.2-11.06c-2.7-1.94-.45-.37,1.15.93-1.06-.86-2.13-1.69-3.19-2.54-2.58-2.08-5.13-4.2-7.68-6.31q-10-8.29-19.84-16.7-13-11.06-26-22.2c-8.06-6.93-18.07-6.89-26.19,0-19.62,16.67-38.93,33.92-59.26,49.71l31.6,13.09c-5.08-49.19-11.58-98.27-17.47-147.37l-2.31-19.27c-1.15-9.58-7.69-19-18.51-18.51-9,.4-19.75,8.21-18.52,18.51Z"/></g></g></svg>