<?xml version="1.0" encoding="utf-8"?>
<!-- Generator: Adobe Illustrator 22.0.0, SVG Export Plug-In . SVG Version: 6.00 Build 0)  -->
<svg version="1.1" id="Camada_1" xmlns="http://www.w3.org/2000/svg" xmlns:xlink="http://www.w3.org/1999/xlink" x="0px" y="0px"
	 viewBox="0 0 814 983.1" style="enable-background:new 0 0 814 983.1;" xml:space="preserve">
<style type="text/css">
	.st0{opacity:0.4;}
	.st1{fill:#02202D;}
	.st2{fill:#025C99;}
	.st3{clip-path:url(#SVGID_2_);}
	.st4{fill:#FFC13B;}
	.st5{fill:#678B93;}
	.st6{opacity:0.5;}
	.st7{fill:#82ADAF;}
	.st8{fill:#FFFFFF;}
	.st9{fill:#000002;}
	.st10{clip-path:url(#SVGID_4_);fill:#99CED6;}
	.st11{opacity:0.3;clip-path:url(#SVGID_4_);}
	.st12{opacity:0.5;clip-path:url(#SVGID_4_);}
</style>
<ellipse class="st0" cx="408.7" cy="894.4" rx="366" ry="10.5"/>
<g>
	<g>
		
			<image style="overflow:visible;" width="671" height="133" xlink:href="37F4FE8CF7E95499.png"  transform="matrix(1 0 0 1 87.748 753.9027)">
		</image>
	</g>
	<g>
		<path class="st1" d="M410.1,820.4c-53.6,0-108.5,0-110.4,0C223,820,176.8,819,152.4,815c-23-3.7-31.2-10.7-31.2-26.5
			c0-1.7-0.1-3.4-0.2-5c-0.9-12.9,0.7-23.1,28.2-26.4c7.7-0.9,18.2-1.4,34.1-1.4c11,0,23.5,0.2,38,0.4c18.3,0.3,39,0.6,61.9,0.6
			c4.8,0,9.7,0,14.7,0c2.4,0,77.4,0,146.7,0c42.7,0,93.2,0,95,0c1.3,0,2.6,0,4,0c22.6,0,47-1,68.4-1.9c17.6-0.7,34.2-1.4,46.8-1.4
			c4,0,7.3,0.1,10.3,0.2c30.8,1.4,46,4.9,52.5,12.2c4.7,5.3,4.3,11.4,3.9,17.4c-0.1,1.7-0.3,3.5-0.3,5.3c0,15.5-9.3,22.7-34.4,26.5
			c-26,3.9-72.9,4.9-150.3,5.4C538.3,820.4,471.4,820.4,410.1,820.4z"/>
		<path d="M658.9,757.9c3.7,0,7.1,0.1,10.1,0.2c61,2.7,51.8,14.2,51.8,30.4c0,23.2-21.6,26.4-180.3,27.3c-2.1,0-69.5,0-132.4,0
			c-55,0-106.5,0-108.3,0c-159.1-0.9-174-4.1-174-27.3c0-12.7-5.8-23.4,24-27c8.2-1,19.5-1.3,33.6-1.3c25.1,0,59,1,100,1
			c4.8,0,9.7,0,14.7,0c2.5,0,80.8,0,147.6,0c49.3,0,92.4,0,94,0c1.3,0,2.7,0,4,0C584.9,761.2,631.1,757.9,658.9,757.9 M658.9,748.9
			L658.9,748.9c-12.7,0-29.4,0.7-47,1.4c-21.4,0.9-45.8,1.9-68.3,1.9c-1.3,0-2.6,0-3.9,0c-1.8,0-51.8,0-94,0
			c-69.8,0-145.2,0-147.7,0c-4.8,0-9.7,0-14.6,0c-22.9,0-43.6-0.3-61.9-0.6c-14.5-0.2-27-0.4-38.1-0.4c-16.1,0-26.8,0.4-34.7,1.4
			c-14.4,1.8-23,5.3-27.9,11.5c-5.1,6.5-4.6,13.8-4.2,19.7c0.1,1.7,0.2,3.2,0.2,4.7c0,6.3,0.9,14.3,7.7,20.6
			c5.4,5,13.8,8.2,27.2,10.4c24.9,4,69.4,5,148.1,5.4c1.8,0,55.7,0,108.3,0c64.2,0,130.3,0,132.5,0c77.6-0.4,124.7-1.4,150.9-5.4
			c23-3.5,38.3-10.1,38.3-30.9c0-1.6,0.1-3.3,0.2-5c0.4-6.2,1-14-5-20.7c-7.5-8.4-23.1-12.3-55.6-13.7
			C666.3,749,662.9,748.9,658.9,748.9L658.9,748.9z"/>
	</g>
	<g>
		<path class="st2" d="M408,803.1c-52.5,0-106.4,0-108.2,0c-76.7-0.4-122.9-1.4-147.4-5.4c-23-3.7-31.2-10.7-31.2-26.5
			c0-16,7.7-22.7,30.6-26.4c24.2-4,68.2-4.9,146.2-5.4c2.5,0,78,0,147.9,0c42.1,0,92,0,93.7,0c77.6,0.4,124.7,1.4,150.9,5.3
			c25.3,3.8,34.7,11,34.7,26.5c0,15.5-9.3,22.7-34.4,26.5c-26,3.9-72.9,4.9-150.3,5.4C538.3,803.1,470.3,803.1,408,803.1z"/>
		<path d="M445.6,743.9c49.3,0,92.4,0,94,0c159.1,0.9,181.1,4.1,181.1,27.3c0,23.2-21.6,26.4-180.3,27.3c-2.1,0-69.3,0-132.2,0
			c-55,0-106.8,0-108.5,0c-159.1-0.9-174-4.1-174-27.3c0-23.1,14.1-26.3,172.3-27.3C300.5,743.9,378.9,743.9,445.6,743.9
			 M445.6,734.9c-69.8,0-145.2,0-147.7,0c-78.2,0.5-122.4,1.5-146.9,5.5c-13.2,2.2-21.5,5.4-26.9,10.4c-6.6,6.3-7.5,14.2-7.5,20.4
			c0,6.3,0.9,14.3,7.7,20.6c5.4,5,13.8,8.2,27.2,10.4c24.9,4,69.4,5,148.1,5.4c1.8,0,55.9,0,108.6,0c62.1,0,130,0,132.2,0
			c77.6-0.4,124.7-1.4,150.9-5.4c23-3.5,38.3-10.1,38.3-30.9c0-3.4,0-13.6-9.4-21c-6-4.7-15-7.8-29.2-9.9c-26.5-4-73.7-5-151.5-5.4
			C537.9,734.9,487.9,734.9,445.6,734.9L445.6,734.9z"/>
	</g>
	<g>
		<defs>
			<path id="SVGID_1_" d="M720.7,771.3c0,23.2-21.6,26.4-180.3,27.3c-4,0-236.9,0-240.7,0c-159.1-0.9-174-4.1-174-27.3
				c0-23.1,14.1-26.3,172.3-27.3c4.3,0,237.8,0,241.6,0C698.7,744.8,720.7,748.1,720.7,771.3z"/>
		</defs>
		<clipPath id="SVGID_2_">
			<use xlink:href="#SVGID_1_"  style="overflow:visible;"/>
		</clipPath>
		<g class="st3">
			
				<rect x="266.2" y="753.4" transform="matrix(0.7071 -0.7071 0.7071 0.7071 -444.9311 468.6569)" class="st4" width="154" height="36"/>
			<path d="M385,710.6l19.1,19.1L301.5,832.2l-19.1-19.1L385,710.6 M385,697.9l-6.4,6.4L276.1,806.8l-6.4,6.4l6.4,6.4l19.1,19.1
				l6.4,6.4l6.4-6.4L410.4,736l6.4-6.4l-6.4-6.4l-19.1-19.1L385,697.9L385,697.9z"/>
		</g>
		<g class="st3">
			
				<rect x="347.2" y="758.4" transform="matrix(0.7071 -0.7071 0.7071 0.7071 -424.7413 527.3958)" class="st4" width="154" height="36"/>
			<path d="M466,715.6l19.1,19.1L382.5,837.2l-19.1-19.1L466,715.6 M466,702.9l-6.4,6.4L357.1,811.8l-6.4,6.4l6.4,6.4l19.1,19.1
				l6.4,6.4l6.4-6.4L491.4,741l6.4-6.4l-6.4-6.4l-19.1-19.1L466,702.9L466,702.9z"/>
		</g>
	</g>
</g>
<g>
	<g>
		<g>
			<g>
				<path class="st5" d="M574.2,614.4c0,0-27.6,61.7-14.5,92.2c8,18.7,14.4,34,14.1,34.5c-0.8,1.7-51.1,24.5-76.5,36.1
					c-8.2-13.5-34.1-66.1-34.1-65.8"/>
				<g>
					<path d="M569.9,611.8c-10.2,22.8-18.6,48.8-18.7,73.9c-0.1,18.9,9.4,34.8,16.2,52c0.4,1.1,0.7,2.4,1.3,3.4c1.7,3-0.5-3.7,2.2-4
						c-1.2,0.1-3.3,1.9-4.4,2.4c-6,3-12,5.8-18.1,8.7c-17.8,8.3-35.7,16.4-53.6,24.6c2.3,0.6,4.6,1.2,6.9,1.8
						c-7.5-12.4-13.8-25.6-20.4-38.6c-3.3-6.4-6.5-12.9-9.7-19.3c-1.5-2.9-2.6-6.5-4.8-9c-4.3-5-11.4,2.2-7.2,7.2
						c-1.8-2.1,0.1,0.8,0.5,1.6c1.1,2.1,2.1,4.2,3.2,6.4c3.2,6.4,6.4,12.9,9.7,19.3c6.4,12.6,12.6,25.5,19.9,37.6
						c1.5,2.5,4.4,3,6.9,1.8c16.4-7.5,32.8-14.9,49.2-22.5c6.7-3.1,13.3-6.2,19.9-9.4c2.8-1.4,7.6-3,9.3-5.9
						c2.6-4.6-3.1-13.5-4.8-17.5c-4-9.6-9.6-19.3-11.4-29.6c-2.9-15.9,1.2-33.1,5.5-48.4c2.2-7.7,4.7-15.2,7.6-22.7
						c1.3-3.4,2.5-6.5,3.5-8.5C581.3,611.1,572.5,605.9,569.9,611.8L569.9,611.8z"/>
				</g>
			</g>
			<g class="st6">
				<path d="M574.2,614.4c0,0-27.6,61.7-14.5,92.2c8,18.7,14.4,34,14.1,34.5c-0.8,1.7-51.1,24.5-76.5,36.1
					c-8.2-13.5-34.1-66.1-34.1-65.8"/>
			</g>
		</g>
		<g>
			<g>
				<path class="st7" d="M358.5,679.6c0,1.8,1.5,55.4-0.3,78c-32.6-2.4-81.9,2.4-83.2,0.9c-1-1.2-3.8-81.2-3.8-81.2"/>
				<g>
					<path d="M353.5,679.6c0.2,26,1.7,52.1-0.3,78c1.7-1.7,3.4-3.4,5.1-5.1c-17.7-1.3-35.6-0.7-53.3,0.1c-6.9,0.3-13.8,0.7-20.7,0.9
						c-2.1,0.1-4.2,0.2-6.2,0.2c-0.5,0-1.3-0.2-1.7,0c-0.8,0.2,0.4-0.2,0.4,0.1c0-0.4,4.3,3.6,3.1,3.1c-0.1-0.1,0,1.2,0,0.1
						c0-0.5-0.1-1.1-0.1-1.6c-0.1-1.7-0.2-3.3-0.3-5c-0.3-5-0.5-10-0.8-14.9c-0.6-11.9-1-23.9-1.5-35.8c-0.3-7.4-0.6-14.8-0.8-22.3
						c-0.2-6.5-10.4-6.5-10.1,0c0.7,19.4,1.4,38.7,2.3,58.1c0.2,5.1,0.5,10.2,0.8,15.3c0.2,2.8,0,6.1,0.8,8.8
						c1.2,4.1,4.9,4.4,8.5,4.4c5.9,0,11.7-0.4,17.6-0.7c20.7-1,41.5-2,62.1-0.5c2.9,0.2,4.9-2.5,5.1-5.1c2-25.9,0.5-52,0.3-78
						C363.6,673.1,353.4,673.1,353.5,679.6L353.5,679.6z"/>
				</g>
			</g>
			<g class="st6">
				<path d="M358.5,679.6c0,1.8,1.5,55.4-0.3,78c-32.6-2.4-81.9,2.4-83.2,0.9c-1-1.2-3.8-81.2-3.8-81.2"/>
			</g>
		</g>
		<g>
			<path class="st7" d="M653.2,235.4c-56,196,0,308-58,396c-9.1,13.9-58.8,64.1-62,68c-4,4.8-7.1,77.2-8.4,78.3
				c-1.5,1.1-57.6,0.7-85.4-0.3c-1.3-15.8,5.7-76.6-5.1-77c-6.9-0.3-109.7-3.5-109.7,1.2c0,1.8,1.5,55.4-0.3,78
				c-32.6-2.4-81.9,2.4-83.2,0.9c-1-1.2,2-78.9-9.8-81.2c-8.9-1.7-41-13-49-17c-6.9-3.4-114.6-58.3-123-198
				c-11-183,141.4-210.8,143-208c8,14-89,55-70,157c13.6,73.2,40.5,106.3,83,73c18.4-14.5,76.9-60.7,166-59c97,1.9,108.9,30.7,146,5
				c13-9,12-38,17.5-81.5C558,266.4,557.1,210.8,589.6,148c7.7-14.9,17.9-29,34.3-42c31.4-24.7,79.1-27.2,111.7-4.2
				c34,24,48.2,75,28.4,106.3c-21.8,34.6-85.8,46.4-136.5,6.2"/>
			<g>
				<path d="M648.4,234.1c-17.8,62.5-26.3,126.6-27.9,191.5c-1.1,45.7,2.3,92.6-5.2,137.9c-3.2,19.2-8.7,37.9-18.1,55
					c-8.9,16.1-21.9,29.2-34.4,42.5c-7.2,7.7-14.5,15.4-21.8,23c-3.7,3.9-7.9,7.7-11.3,11.9c-3.5,4.5-3.6,11.7-4.2,17.1
					c-1.1,9.5-1.9,19.1-2.6,28.6c-0.7,9-1.3,18-2,26.9c-0.1,1.4-0.2,2.9-0.4,4.3c-0.1,0.6-0.1,1.1-0.2,1.7c-0.1,0.8,0.2,1.5,0,0.5
					c0,0.1-0.1,0.8-0.1,0.8c-0.5,0,3-3.1,3-2.9c0-0.1,1,0,0.1,0c-0.6,0-1.2,0.1-1.8,0.1c-21.8,1.2-43.9,0.3-65.7-0.2
					c-5.4-0.1-10.9-0.3-16.3-0.5c1.7,1.7,3.4,3.4,5.1,5.1c-1.6-21.4,2.7-42.9,0.4-64.4c-0.7-6.9-2-17-10.7-17.7
					c-5.3-0.4-10.8-0.3-16.1-0.5c-21.3-0.6-42.6-1-63.9-0.8c-8.1,0.1-16.3,0.1-24.3,1c-5.2,0.6-10.1,1.5-10.2,7.8
					c-0.4,25.6,1.6,51.2-0.3,76.8c1.7-1.7,3.4-3.4,5.1-5.1c-22.7-1.6-45.6-0.3-68.3,0.8c-3.4,0.2-6.8,0.3-10.2,0.4
					c-0.9,0-2.2-0.2-3.1,0c-1.5,0.3,0.4-0.5,0.2,0.1c-0.1,0.3,3.8,2.5,3.2,4.2c0.3-1.1-0.1-3.1-0.1-4.3c0-2.8,0-5.6-0.1-8.4
					c-0.1-15.8-0.2-31.7-2.1-47.3c-0.8-6.3-1.5-13.1-4.3-18.9c-2.6-5.4-6.3-6.2-11.6-7.7c-20.5-5.6-40.7-12.7-58.6-24.4
					c-22.9-15-43.2-34.3-59.5-56.3c-25.3-34.3-40.4-75-44.7-117.3c-4.2-41.6-0.3-85.6,18.3-123.6c21.1-43,61.5-76.8,107.7-88.6
					c2.5-0.6,4.9-1.1,7.4-1.6c2.1-0.4-0.7,0.1,1.4-0.2c0.4,0,1.4,0.1,1.7-0.1c-0.3,0.2-1.6-0.3-2.1-0.6c-2.4-1.5-1.6-1.7-2-2.8
					c0.4,1.2,0.3-0.7,0,0.3c-0.4,1.5,0.5-0.5-0.4,0.9c-1.6,2.5-3.8,4.9-6.7,7.8c-20.5,20.4-41.4,39.6-53.8,66.4
					c-18.8,40.6-12.8,86.9,3,127.6c6,15.4,14.8,33.1,30.6,40.4c15.3,7.1,31.6,1.1,44.5-8.2c10.2-7.4,19.8-15.2,30.7-22.1
					c16.8-10.6,34.8-19.4,53.7-25.8c48.5-16.4,100.8-15.5,150.6-5.6c13.7,2.7,27.3,6.8,41.2,8.2c11.8,1.2,22.9-1.4,33.2-7.4
					c6.1-3.5,11.2-7.5,14.2-14.1c3.8-8.2,5-17.2,6.2-26.1c3.6-27.8,6.3-55.7,9.4-83.6c5.1-45.1,7.9-91.3,20.2-135.3
					c12.2-43.9,35.3-92.7,82.6-106.6c23.1-6.8,49.2-4.8,70.2,7.3c19.9,11.5,33.6,31.8,38.9,53.9c4.7,19.6,2.4,41.8-12,57
					c-14.1,14.8-35.2,21.3-55.2,21.5c-24.5,0.2-48.3-8.8-67.5-23.8c-5.1-4-12.3,3.2-7.2,7.2c36.2,28.3,92,38.9,130.4,8.3
					c36.4-29,26.6-84.7-1.5-115.9c-34.5-38.2-96.1-37.9-134.6-6.2c-35.1,28.9-51.3,76.6-59.9,119.8c-4.4,22.3-7.1,44.9-9.6,67.5
					c-3.2,28.7-6.5,57.3-9.8,85.9c-1.6,13.4-2.6,26.9-4.2,40.3c-1,8.3-1.9,17.8-6,25.4c-5.1,9.4-19.6,14.5-29.4,14.9
					c-12.7,0.6-25.4-3.5-37.7-6.2c-22.2-4.9-44.8-7.9-67.5-8.9c-50.2-2.4-99.1,8.2-143,33c-12.7,7.2-24.7,15.5-36.2,24.5
					c-10.8,8.4-25,18.2-39.2,12.3c-16-6.7-23.9-27-29-42.1c-7.8-23.2-13.5-48.5-11.5-73.1c2.8-35.2,22.5-64.3,46.9-88.4
					c7.4-7.3,16.1-14,22.3-22.5c3.5-4.7,5.8-15-3-15.3c-4.6-0.2-9.5,1.3-13.9,2.4c-8.5,2.3-16.8,5.4-24.9,8.9
					c-23.4,10.4-44.8,25.8-61.7,45c-23.8,27-38.3,60.7-44,96.1c-7.5,46.8-3,96.8,14.7,140.8c13.6,34.1,34.9,64.7,62,89.4
					c13.6,12.4,28.8,24.1,45.4,32.5c14,7.1,29.9,12.1,44.9,16.4c1.5,0.4,3,0.9,4.6,1.2c0.5,0.1,1.1,0.3,1.6,0.3
					c-0.1,0-0.4,0-0.7-0.4c0.5,0.8,1.4,2.3,2,4.4c2,6.7,2.6,13.7,3.1,20.6c1.2,15.1,1.1,30.3,1.3,45.5c0,4-0.7,9.5,4.1,11.1
					c4.9,1.6,11.7,0.2,16.7,0c22.5-1,45.2-2.4,67.7-0.8c2.9,0.2,4.9-2.5,5.1-5.1c1.8-23,1-46.3,0.5-69.3c0-2,0.7-6.4-0.2-8.2
					c-0.5-0.9-0.3,1.3-0.6,1.9c-0.5,0.9-1.9,1.8-2.1,1.8c0.5,0.1,1.9-0.4,2.4-0.5c-0.1,0,1.2-0.1,2.4-0.2c1.6-0.1,3.2-0.2,4.9-0.3
					c4.2-0.2,8.3-0.3,12.5-0.4c20.1-0.4,40.1,0,60.2,0.5c7,0.2,14.1,0.3,21.1,0.6c0.9,0,5.5,0.4,2.6-0.2c-0.8-0.2-0.1-0.2,0.1,0.5
					c0.6,1.7,1,3.4,1.3,5.1c3.6,22-1.7,44.5-0.1,66.6c0.2,2.8,2.2,5,5.1,5.1c24,0.8,48.1,1.2,72.1,0.9c4.4-0.1,14.2,1.4,17.4-2.7
					c2.8-3.7,2.1-11.6,2.4-16c1.4-18.4,2.1-37,4.8-55.3c0.3-2,1.8-5.6,1.6-7.5c0,0.3-1.2,1.6-0.1,0.4c0.7-0.8,1.4-1.5,2.1-2.2
					c5.8-6.1,11.7-12.2,17.5-18.3c13.9-14.6,28.7-29.1,40.8-45.3c11.3-15.2,18.7-33.9,23.4-52.2c11.1-43.4,8.5-89.5,8.9-133.9
					c0.6-62.5,5.7-124.5,20.5-185.5c2.3-9.4,4.8-18.8,7.4-28.1C659.9,230.5,650.1,227.8,648.4,234.1L648.4,234.1z"/>
			</g>
		</g>
		<g>
			<g>
				<path d="M756.4,210.5c-20.8-3.5-41.8-1.4-62.7-3.5c-15.8-1.6-27.1-8.9-37.2-20.9c-4.2-5-11.4,2.2-7.2,7.2
					c10.4,12.2,22.6,20.7,38.7,23.1c21.8,3.3,44,0.2,65.7,3.9C760.1,221.3,762.8,211.6,756.4,210.5L756.4,210.5z"/>
			</g>
		</g>
		<g>
			<ellipse class="st8" cx="669.2" cy="139.9" rx="18" ry="20.5"/>
			<path d="M669.2,121.4c8.8,0,16,8.3,16,18.5s-7.2,18.5-16,18.5s-16-8.3-16-18.5S660.4,121.4,669.2,121.4 M669.2,117.4
				c-11,0-20,10.1-20,22.5s9,22.5,20,22.5s20-10.1,20-22.5S680.3,117.4,669.2,117.4L669.2,117.4z"/>
		</g>
		<path class="st9" d="M672.2,129.9c-1.2,0-2.3,0.3-3.3,0.7c1.1,1.1,1.8,2.6,1.8,4.3c0,3.3-2.7,6-6,6c-0.4,0-0.7,0-1.1-0.1
			c0.4,5.1,4.1,9.1,8.6,9.1c4.8,0,8.6-4.5,8.6-10C680.9,134.4,677,129.9,672.2,129.9z"/>
		<g>
			<defs>
				<path id="SVGID_3_" d="M648.7,233.9c-13.5,47.1-21.1,89.2-24.2,127.3c-9.9,120.3,16.3,199.9-27.8,266.7
					c-9.1,13.9-65.8,68.1-69,72c-4,4.8-5.7,72-7,73c-1.5,1.1-49.1,1-77,0c-1.3-15.8,6.8-76.6-4-77c-6.9-0.3-120.2-2-120.2,2.7
					c0,1.8,1.5,53.4-0.3,76c-32.6-2.4-72.9,2.4-74.2,0.9c-1-1.2,2-76.9-9.8-79.2c-8.9-1.7-45-16-53-20
					c-6.9-3.4-107.6-52-118.5-191.5c-13-167,129.3-205.8,131-203c5,8-86,53-67,155c13.6,73.2,46.5,108.3,89,75
					c18.4-14.5,62-52,154-59c79.3-6,124,27,159-1c12.3-9.9,14.5-36.5,20-80c13.2-104.5,10-146,41-216c6.8-15.3,20.6-33.1,37-46
					c31.4-24.7,73-24,102-7c35.9,21,48,76,31,101c-23,33.8-80.3,46.1-131,6"/>
			</defs>
			<clipPath id="SVGID_4_">
				<use xlink:href="#SVGID_3_"  style="overflow:visible;"/>
			</clipPath>
			<ellipse class="st10" cx="281.7" cy="513.7" rx="17.5" ry="11.8"/>
			<ellipse class="st10" cx="325" cy="486.1" rx="22.8" ry="15.3"/>
			<ellipse class="st10" cx="342.7" cy="519.7" rx="17.5" ry="11.8"/>
			<ellipse class="st10" cx="446.7" cy="485.6" rx="17.5" ry="11.8"/>
			<ellipse class="st10" cx="403.5" cy="513.1" rx="22.8" ry="15.3"/>
			<ellipse class="st10" cx="385.7" cy="479.6" rx="17.5" ry="11.8"/>
			<ellipse class="st10" cx="379.7" cy="703.4" rx="60" ry="24.5"/>
			<path class="st10" d="M194.7,277.9"/>
			<path class="st11" d="M234.7,695.9c0,0-144-69-155-217C66.2,296.1,201.4,268,201.4,268c-2.1-3-172,38.7-156.5,218.1
				c13,149.9,133.3,202.1,141.5,205.8"/>
			<path class="st12" d="M623.7,217.9c7,11,15.8,19.7,18,38c2,17,40,8,17-19C658.7,236.9,651.7,236.9,623.7,217.9z"/>
		</g>
	</g>
	<g>
		<g>
			<path class="st4" d="M631.3,403.9c-3.8,99.4,7.6,170.4-32.1,230.6c-9.6,14.5-55.4,67-58.8,71c-2,2.5-7.2,12-5.4,31.3
				c0.1,0.8-30.6-5.7-53.9-5.8c-22.6-0.1-43.8,6.1-43.9,5.8c-1.1-19.4,0-30.1-6.3-30.3c-3.4-0.1-29.2-1-55.5-1.3
				c0,0-23.5-70.8-23.5-137.7c0-63.7,23.6-125.4,23.6-125.4c101.3,2,113.7,32.1,152.5,5.2c9.4-6.5,11.8-22.9,14.3-47.4L631.3,403.9z
				"/>
			<g>
				<path d="M626,403.9c-1.2,32.4-0.7,64.8-1.3,97.2c-0.5,26.7-1.7,53.8-8.2,79.9c-5.3,21.2-14.2,41.5-27.7,58.8
					c-12.7,16.3-26.3,32-39.8,47.7c-4.2,4.9-8.6,9.6-12.6,14.7c-7.4,9.4-7.7,23.5-6.7,34.8c0.5-1.2,1-2.5,1.5-3.7
					c3.5-0.9,4.6-1.4,3.3-1.5c-0.1,0-0.2,0-0.3,0c-0.1-0.1-0.9-0.2-0.2,0c-1.1-0.3-2.4-0.4-3.6-0.5c-3.6-0.6-7.3-1.1-10.9-1.7
					c-10-1.5-20.1-2.8-30.2-3.4c-11.2-0.6-22.3,0.1-33.4,1.8c-4.4,0.7-8.8,1.5-13.2,2.4c-1.4,0.3-2.8,0.6-4.3,1
					c-2,0.5-3.1-0.1,0.2,0.6c1.3,1.7,2.6,3.4,3.9,5.1c-0.4-8.5,0.1-17.6-1.7-26c-1.2-5.6-4.5-9.2-10.3-9.6c-18.3-1.2-36.7-1-55-1.2
					c1.7,1.3,3.4,2.6,5.1,3.9c-9.2-27.9-15.5-57.2-19.6-86.3c-3.4-24.6-4.7-49.4-2.7-74.2c1.9-22.4,6.2-44.6,11.9-66.4
					c3-11.3,6.3-22.5,10.4-33.4c-1.7,1.3-3.4,2.6-5.1,3.9c20.5,0.4,41,2,61.2,5.5c12.9,2.2,25.5,5.3,38.2,8c9,1.9,18.3,3.6,27.6,2.5
					c10-1.2,19.2-5.3,27.4-11c15.8-10.9,15.9-35.4,17.6-52.5c-1.8,1.8-3.5,3.5-5.3,5.3c26,1.1,51.9,2.2,77.9,3.4
					c3.7,0.2,7.4,0.3,11,0.5c6.8,0.3,6.8-10.3,0-10.6c-26-1.1-51.9-2.2-77.9-3.4c-3.7-0.2-7.4-0.3-11-0.5c-3.1-0.1-5,2.5-5.3,5.3
					c-1,9.7-1.9,19.6-4.4,29.1c-1.5,5.8-3.6,11.3-8.7,14.8c-6.8,4.6-14.9,8.4-22.6,9.2c-8.5,0.8-16.8-0.8-25.1-2.6
					c-12-2.6-24-5.5-36.1-7.6c-21.4-3.7-43-5.5-64.6-6c-2.5-0.1-4.3,1.7-5.1,3.9c-11.1,29.2-18,60.8-21.6,91.8
					c-5.6,47.5,1.1,95.4,12.4,141.6c2.7,10.9,5.6,21.8,9.1,32.5c0.7,2.2,2.7,3.9,5.1,3.9c17.1,0.2,34.2,0.6,51.4,1.1
					c1,0,3.5-0.1,4,0.1c-1.7-0.8-0.4,1-0.1,2.2c1.4,7.4,0.9,15.3,1.3,22.8c0.1,2.2,1.5,4.7,3.9,5.1c4.6,0.9,10.5-1.7,15-2.6
					c10.5-2,21.1-3.2,31.8-3c16.4,0.3,32.5,3.2,48.7,5.5c1.6,0.2,3.5,0.7,5.1,0.2c5.4-1.6,3.6-7.9,3.5-12.1
					c-0.1-6.6,0.6-13.5,3.6-19.4c0.3-0.6,0.7-1.1,1-1.7c-0.8,1.2,0,0.1,0.2-0.2c0.9-1.1,1.8-2.1,2.7-3.1c3.3-3.8,6.5-7.6,9.8-11.3
					c9.1-10.6,18.1-21.2,27-32c7.3-8.8,14.9-17.6,21-27.3c18.1-28.5,25.5-61.5,28.3-94.8c3.8-45.3,1.4-90.9,3.1-136.2
					C636.8,397.1,626.2,397.1,626,403.9z"/>
			</g>
		</g>
		<g>
			<path class="st4" d="M531.2,371.1c-4.2,3.9-6.7,9.4-6,15.7c0.2,1.5,0.8,3,1.3,4.5c4.3,12.8-0.3,27.6,0.3,40.9
				c0.2,4.8,0.1,7.7,4.7,10.4c5.6,3.3,12.7,3.6,19,3.4c22.7-0.7,46.2-7.5,68.7-1.4c6.9,1.9,19.4,9,20.1-3.1
				c0.2-4.2-0.6-9.3-1.9-13.3c-2.1-6.4-2.3-9.6,0-16.1c2.7-7.6,3.8-15.7,3.3-23.7c-0.3-5,1.3-7.9-3-11.2c-4.6-3.5-9.5-3.4-15-2.7
				c-8.5,1-17.1,1-25.6-0.3c-17.7-2.7-34.9-11.2-52.6-9.1C539.5,365.6,534.8,367.8,531.2,371.1z"/>
			<g>
				<path d="M528,367.9c-3.9,3.9-6.6,8.7-7.3,14.3c-0.8,7.1,2.9,13.6,3.1,20.7c0.2,7-0.9,13.9-1.4,20.8c-0.4,5.4-1.2,12.7,1.6,17.7
					c6.3,11.4,25.1,9.4,35.7,8.5c14.9-1.3,29.8-4.1,44.8-3.2c6.1,0.4,12,1.6,17.8,3.6c3.9,1.4,8.1,2.9,12.3,2.4
					c12.3-1.5,9.5-17.5,7.2-25.8c-0.9-3-1.8-5.8-1.3-9c0.5-3.4,2.1-6.7,2.9-10c1.8-7,1.8-13.8,1.8-21c0-5.2,0-9.3-4.3-12.9
					c-5.2-4.4-11.8-4.7-18.2-4.1c-8.7,0.8-17.4,1.1-26.1-0.4c-8.3-1.4-16.4-4-24.5-6.1C557.3,359.8,540.5,357.2,528,367.9
					c-4.4,3.8,2,10.1,6.4,6.4c9.6-8.2,24.2-4.9,35.3-2.1c11.5,2.9,22.8,6.5,34.8,7.3c6.1,0.4,12.2,0.1,18.3-0.5
					c4.6-0.4,12.8-1.3,13.6,4.8c0.6,5.2,0.3,11.2-0.5,16.3c-0.9,6-3.7,11.5-4.3,17.5c-0.5,4.7,0.8,8.8,2.1,13.3
					c0.7,2.6,3,11.1,0.4,12.9c-1.7,1.1-6.6-1.2-8.3-1.8c-4.4-1.5-8.8-2.7-13.5-3.4c-12.2-1.8-24.4-0.7-36.6,0.7
					c-11.6,1.3-25.3,4.4-36.9,1.4c-2.3-0.6-5.7-1.5-6.9-3.8c-1-2-0.6-5.9-0.6-8c0.1-6.4,1-12.7,1.4-19c0.4-6,0.3-12.2-1.3-18.1
					c-1.9-6.9-2.4-12,3.1-17.4C538.5,370.2,532.2,363.8,528,367.9z"/>
			</g>
		</g>
		<g>
			<path class="st4" d="M549.6,365.6c1.2,6.7,2.4,13.5,3.4,20.3c0.6,3.8,1.1,7.7,0.8,11.5c-0.6,8.1-4.9,15.8-3.9,23.8"/>
			<g>
				<path d="M545.2,366.8c1.7,9.2,4.4,19.3,4.1,28.7c-0.2,8.8-4.7,16.8-4,25.7c0.5,5.7,9.5,5.8,9,0c-0.8-9.4,4.3-18.1,3.9-27.6
					c-0.4-9.7-2.7-19.6-4.4-29.2C552.9,358.7,544.2,361.1,545.2,366.8L545.2,366.8z"/>
			</g>
		</g>
		<g>
			<path class="st4" d="M580.8,442.9c0.3-3.4-0.3-6.8-0.6-10.3c-1.1-11.7,1.5-26.8,6.8-37.2"/>
			<g>
				<path d="M585.4,442.9c0.4-7.7-1.2-15.3-0.5-23c0.8-7.6,2.7-15.3,6.1-22.2c2.6-5.2-5.2-9.8-7.8-4.5c-3.7,7.5-5.9,15.5-7,23.8
					c-1.1,8.8,0.6,17.3,0.1,26C576,448.7,585,448.7,585.4,442.9L585.4,442.9z"/>
			</g>
		</g>
		<g>
			<path class="st4" d="M615.6,375.6c3.9,4.9,3.8,12,2.1,18c-1.7,6-4.9,11.6-6.8,17.6c-1.9,6.2-2.4,12.7-2.6,19.2"/>
			<g>
				<path d="M611.7,377.9c5.6,7.9,0.8,17.4-2.5,25.2c-3.7,8.9-5.1,17.8-5.4,27.4c-0.2,5.8,8.8,5.8,9,0c0.2-5.5,0.6-11,2-16.3
					c1.4-5.3,3.9-10.1,5.9-15.2c3.1-8.3,4.2-17.9-1.2-25.6C616.1,368.7,608.3,373.2,611.7,377.9L611.7,377.9z"/>
			</g>
		</g>
	</g>
</g>
<g>
</g>
<g>
</g>
<g>
</g>
<g>
</g>
<g>
</g>
<g>
</g>
<g>
</g>
<g>
</g>
<g>
</g>
<g>
</g>
<g>
</g>
<g>
</g>
<g>
</g>
<g>
</g>
<g>
</g>
</svg>
